<svg width="32" height="33" viewBox="0 0 32 33" fill="none" xmlns="http://www.w3.org/2000/svg">
<path fill-rule="evenodd" clip-rule="evenodd" d="M27.7231 17.0385H20.2724C19.8599 19.1274 18.0236 20.7029 15.8205 20.7029C13.3141 20.7029 11.2821 18.6637 11.2821 16.1483C11.2821 13.6329 13.3141 11.5936 15.8205 11.5936C18.0917 11.5936 19.9733 13.2677 20.3067 15.4535H27.7231C28.1592 15.4535 28.5126 15.8081 28.5126 16.246C28.5126 16.6835 28.1592 17.0383 27.7229 17.0383L27.7231 17.0385ZM16 0C7.16349 0 0 7.22988 0 16.1483C0 25.0667 7.16349 32.2966 16 32.2966C24.8365 32.2966 32 25.0667 32 16.1483C32 7.22988 24.8365 0 16 0Z" fill="white"/>
</svg>
